<?xml version="1.0" encoding="utf-8"?>
<!-- Generator: Adobe Illustrator 19.0.0, SVG Export Plug-In . SVG Version: 6.00 Build 0)  -->
<svg version="1.1" id="Layer_1" xmlns="http://www.w3.org/2000/svg" xmlns:xlink="http://www.w3.org/1999/xlink" x="0px" y="0px" width="300px" height="61px"
	 viewBox="0 0 305 61.8" style="enable-background:new 0 0 305 61.8;" xml:space="preserve">
<style type="text/css">
	.st0{display:none;fill:#5FBAE9;stroke:#5FBAE9;stroke-linejoin:round;stroke-miterlimit:10;}
	.st1{display:none;fill:#5FBAE9;}
	.st2{display:none;fill:#4F8FCC;}
	.st3{display:none;fill:none;stroke:#010101;stroke-width:5;stroke-linecap:round;stroke-linejoin:round;stroke-miterlimit:10;}
	.st4{display:none;}
	.st5{display:inline;}
	.st6{display:inline;fill:#FFFFFF;}
	.st7{display:inline;fill:#5FBAE9;}
	.st8{display:inline;fill:#4F8FCC;}
	.st9{fill:#010101;}
	.st10{fill:#5FBAE9;stroke:#5FBAE9;stroke-linejoin:round;stroke-miterlimit:10;}
	.st11{fill:#FFFFFF;}
</style>
<path id="XMLID_17_" class="st0" d="M286.3,11.4H171.2c-3,0-5.5,2.4-5.5,5.5v47.8c0,3,2.4,5.5,5.5,5.5h115.1c3,0,5.5-2.4,5.5-5.5
	V16.8C291.7,13.8,289.3,11.4,286.3,11.4z"/>
<path id="XMLID_2_" class="st1" d="M161.7-145.2v-33.5c0-5.9-4.8-10.6-10.6-10.6H55.1c-5.9,0-10.6,4.8-10.6,10.6v33.5
	c0,5.9,4.8,10.6,10.6,10.6h96.1h21.2C166.5-134.6,161.7-139.3,161.7-145.2z"/>
<path id="XMLID_12_" class="st2" d="M172.3-134.6h-8c-5.9,0-10.6-4.8-10.6-10.6v-33.5c0-5.9-4.8-10.6-10.6-10.6h8
	c5.9,0,10.6,4.8,10.6,10.6v33.5C161.7-139.3,166.5-134.6,172.3-134.6z"/>
<line id="XMLID_5_" class="st3" x1="38.5" y1="-176.4" x2="38.5" y2="-175.4"/>
<path id="XMLID_1_" class="st3" d="M38.5-169v23.8c0,5.9,4.8,10.6,10.6,10.6h102.1h21.2c-5.9,0-10.6-4.8-10.6-10.6v-33.5
	c0-5.9-4.8-10.6-10.6-10.6H49.1c-2.7,0-5.2,1-7.1,2.7c-1.2,1.1-2.2,2.4-2.8,3.9"/>
<rect id="XMLID_4_" x="-187.2" y="-183.1" style="fill:none;" width="219" height="72.5"/>
<text id="XMLID_3_" transform="matrix(1 0 0 1 -187.2154 -135.6522)" class="st4" style="font-family:'Gotham-Bold'; font-size:65px;">Bonga</text>
<g id="XMLID_6_" class="st4">
	<path id="XMLID_9_" class="st6" d="M52-151.9l2.8-4.2c2.9,2.2,6.1,3.3,8.8,3.3c2.6,0,4.2-1.1,4.2-2.9v-0.1c0-2.1-2.9-2.8-6-3.8
		c-4-1.1-8.4-2.8-8.4-7.9v-0.1c0-5.1,4.2-8.2,9.6-8.2c3.4,0,7,1.2,9.9,3.1l-2.4,4.4c-2.6-1.6-5.3-2.5-7.6-2.5
		c-2.4,0-3.8,1.1-3.8,2.7v0.1c0,1.9,2.9,2.8,6.1,3.8c3.9,1.2,8.4,3,8.4,7.8v0.1c0,5.7-4.4,8.5-10,8.5
		C59.6-147.8,55.4-149.2,52-151.9z"/>
	<path id="XMLID_11_" class="st6" d="M79.7-175.3h6.2v4.1c1.7-2.4,4.1-4.6,8.2-4.6c3.9,0,6.6,1.9,8,4.7c2.2-2.9,5-4.7,9.1-4.7
		c5.9,0,9.4,3.7,9.4,10.3v17.2h-6.2v-15.3c0-4.3-2-6.6-5.5-6.6c-3.4,0-5.8,2.3-5.8,6.7v15.2h-6.2v-15.3c0-4.2-2-6.5-5.5-6.5
		c-3.4,0-5.8,2.5-5.8,6.7v15.1h-6.2V-175.3z"/>
	<path id="XMLID_14_" class="st6" d="M125.9-151.9l2.8-4.2c2.9,2.2,6.1,3.3,8.8,3.3c2.6,0,4.2-1.1,4.2-2.9v-0.1c0-2.1-2.9-2.8-6-3.8
		c-4-1.1-8.4-2.8-8.4-7.9v-0.1c0-5.1,4.2-8.2,9.6-8.2c3.4,0,7,1.2,9.9,3.1l-2.4,4.4c-2.6-1.6-5.3-2.5-7.6-2.5
		c-2.4,0-3.8,1.1-3.8,2.7v0.1c0,1.9,2.9,2.8,6.1,3.8c3.9,1.2,8.4,3,8.4,7.8v0.1c0,5.7-4.4,8.5-10,8.5
		C133.5-147.8,129.3-149.2,125.9-151.9z"/>
</g>
<g id="XMLID_7_" class="st4">
	<path id="XMLID_27_" class="st7" d="M560.9-159.6v-35.9c0-6.3-5.1-11.4-11.4-11.4H446.4c-6.3,0-11.4,5.1-11.4,11.4v35.9
		c0,6.3,5.1,11.4,11.4,11.4h103.2h22.8C566-148.2,560.9-153.3,560.9-159.6z"/>
	<path id="XMLID_26_" class="st8" d="M572.3-148.2h-8.6c-6.3,0-11.4-5.1-11.4-11.4v-35.9c0-6.3-5.1-11.4-11.4-11.4h8.6
		c6.3,0,11.4,5.1,11.4,11.4v35.9C560.9-153.3,566-148.2,572.3-148.2z"/>
	<g id="XMLID_25_" class="st5">
		<path id="XMLID_16_" class="st9" d="M428.5-189.3c-1.5,0-2.7-1.2-2.7-2.7v-1.1c0-1.5,1.2-2.7,2.7-2.7c1.5,0,2.7,1.2,2.7,2.7v1.1
			C431.2-190.5,430-189.3,428.5-189.3z"/>
	</g>
	<g id="XMLID_24_" class="st5">
		<path id="XMLID_18_" class="st9" d="M572.3-145.5H439.9c-7.8,0-14.1-6.3-14.1-14.1v-25.6c0-1.5,1.2-2.7,2.7-2.7
			c1.5,0,2.7,1.2,2.7,2.7v25.6c0,4.8,3.9,8.7,8.7,8.7h121.4c-1.9-2.4-3-5.4-3-8.7v-35.9c0-4.8-3.9-8.7-8.7-8.7H439.9
			c-2.1,0-4.2,0.8-5.8,2.2c-1,0.9-1.8,2-2.3,3.2c-0.6,1.4-2.1,2-3.5,1.5c-1.4-0.6-2-2.1-1.5-3.5c0.8-2,2.1-3.8,3.7-5.2
			c2.6-2.3,5.9-3.6,9.4-3.6h109.6c7.8,0,14.1,6.3,14.1,14.1v35.9c0,4.8,3.9,8.7,8.7,8.7c1.5,0,2.7,1.2,2.7,2.7
			C575-146.7,573.8-145.5,572.3-145.5z"/>
	</g>
</g>
<rect id="XMLID_23_" x="234.4" y="-206.4" style="fill:none;" width="219" height="72.5"/>
<text id="XMLID_22_" transform="matrix(1 0 0 1 234.4368 -157.6679)" class="st4" style="font-family:'Heebo-Bold'; font-size:65px;">Bonga</text>
<rect id="XMLID_29_" x="440.8" y="-201.9" style="fill:none;" width="183.2" height="60.7"/>
<text id="XMLID_28_" transform="matrix(1 0 0 1 440.8394 -161.1253)" style="display:none;fill:#FFFFFF; font-family:'Heebo-Medium'; font-size:54.3832px;">sms</text>
<g id="XMLID_152_">
	<path id="XMLID_36_" class="st10" d="M291.7,48.7V12.8c0-6.3-5.1-11.4-11.4-11.4H177.2c-6.3,0-11.4,5.1-11.4,11.4v35.9
		c0,6.3,5.1,11.4,11.4,11.4h103.2h22.8C296.8,60.1,291.7,55,291.7,48.7z"/>
	<path id="XMLID_31_" d="M28.1,28.3c1.1,1.6,1.6,3.5,1.6,5.6c0,3.7-1.2,6.5-3.5,8.4c-2.4,1.9-5.7,2.9-9.9,2.9H4.7H2.1V6.5h13.3
		c4.4,0,7.7,0.9,10,2.6c2.3,1.7,3.5,4.4,3.5,7.9c0,1.8-0.5,3.4-1.4,4.8c-1,1.4-2.4,2.5-4.2,3.2C25.4,25.6,27,26.7,28.1,28.3z
		 M8.9,12v10.7h6.5c2.1,0,3.7-0.5,4.9-1.4c1.2-0.9,1.7-2.3,1.7-4c0-1.9-0.5-3.2-1.6-4.1c-1.1-0.8-2.8-1.3-5.1-1.3H8.9z M21.2,38
		c1.1-1.1,1.7-2.5,1.7-4.2c0-4-2.1-6.1-6.3-6.1H8.9v11.8h7.4C18.4,39.6,20.1,39.1,21.2,38z"/>
	<path id="XMLID_35_" d="M36.3,23c1.1-2.2,2.6-4,4.6-5.2s4.4-1.9,7.1-1.9c2.8,0,5.2,0.6,7.2,1.9c2,1.3,3.6,3,4.6,5.2
		s1.6,4.7,1.6,7.5v0.6c0,2.8-0.5,5.3-1.6,7.5s-2.6,3.9-4.6,5.2c-2,1.3-4.4,1.9-7.1,1.9s-5.1-0.6-7.2-1.9c-2-1.3-3.6-3-4.6-5.2
		c-1.1-2.2-1.6-4.7-1.6-7.5v-0.6C34.6,27.7,35.2,25.2,36.3,23z M43,37.8c1.1,1.7,2.8,2.6,5.1,2.6c1.5,0,2.8-0.4,3.8-1.2
		c1-0.8,1.8-1.9,2.3-3.3c0.5-1.4,0.7-3,0.7-4.7v-0.6c0-1.7-0.2-3.3-0.7-4.7c-0.5-1.4-1.2-2.5-2.3-3.4c-1-0.8-2.3-1.2-3.8-1.2
		c-1.5,0-2.8,0.4-3.8,1.2c-1,0.8-1.8,2-2.2,3.4c-0.5,1.4-0.7,3-0.7,4.7v0.6C41.3,33.8,41.8,36,43,37.8z"/>
	<path id="XMLID_39_" d="M88.2,18.4c1.6,1.7,2.4,4.4,2.4,8.2v18.5H84V26.6c0-1.9-0.4-3.3-1.2-4.1s-2.1-1.2-3.8-1.2
		c-1.2,0-2.3,0.3-3.3,0.9c-1,0.6-1.8,1.4-2.3,2.5v20.4h-6.6V16.4h6.2l0.2,3.3c1-1.2,2.2-2.2,3.7-2.9c1.4-0.7,3-1,4.7-1
		C84.4,15.9,86.6,16.7,88.2,18.4z"/>
	<path id="XMLID_41_" d="M121.4,16.4v27.9c0,2.5-0.5,4.7-1.6,6.6c-1.1,1.8-2.6,3.2-4.6,4.2c-2,0.9-4.3,1.4-6.9,1.4
		c-1.2,0-2.4-0.2-3.8-0.5c-1.3-0.3-2.6-0.8-3.9-1.6s-2.3-1.6-3.1-2.7l3.1-4c1,1.2,2.1,2,3.4,2.6c1.2,0.6,2.5,0.9,3.9,0.9
		c2.2,0,3.9-0.6,5.1-1.8c1.2-1.2,1.8-2.9,1.8-5v-1.9c-1.9,2.1-4.3,3.1-7.4,3.1c-2.3,0-4.3-0.6-6.1-1.9c-1.7-1.3-3.1-3-4-5.2
		c-0.9-2.2-1.4-4.7-1.4-7.5v-0.6c0-2.9,0.5-5.5,1.4-7.7c0.9-2.2,2.3-3.9,4-5.2s3.8-1.8,6.1-1.8c3.3,0,5.9,1.1,7.7,3.4l0.3-2.8H121.4
		z M114.8,37V24.5c-1.2-2.1-3.1-3.2-5.7-3.2c-1.5,0-2.7,0.4-3.7,1.2c-1,0.8-1.7,1.9-2.2,3.3c-0.5,1.4-0.7,3-0.7,4.7v0.6
		c0,2.7,0.5,4.9,1.6,6.6c1.1,1.7,2.7,2.5,4.9,2.5C111.7,40.3,113.6,39.2,114.8,37z"/>
	<path id="XMLID_44_" d="M151.8,44.7v0.5H145c-0.3-0.6-0.5-1.5-0.7-2.7c-0.9,1-2,1.8-3.2,2.3c-1.3,0.6-2.7,0.9-4.3,0.9
		c-1.9,0-3.6-0.4-5-1.1c-1.5-0.7-2.6-1.8-3.5-3.1c-0.8-1.3-1.2-2.8-1.2-4.4c0-3.1,1.1-5.4,3.4-7c2.3-1.6,5.5-2.4,9.7-2.4h4v-1.9
		c0-1.5-0.4-2.7-1.2-3.6s-2.1-1.3-3.7-1.3c-1,0-1.8,0.2-2.6,0.5c-0.7,0.3-1.3,0.8-1.7,1.4c-0.4,0.6-0.6,1.2-0.6,2h-6.6
		c0-1.5,0.5-3,1.5-4.3s2.4-2.4,4.2-3.3s3.9-1.2,6.2-1.2c2.2,0,4.1,0.4,5.8,1.1c1.7,0.7,3,1.9,3.9,3.3c0.9,1.5,1.4,3.3,1.4,5.4v12.7
		C150.7,41.1,151,43.2,151.8,44.7z M141.7,39.4c1.1-0.7,1.9-1.4,2.4-2.4v-5.4h-3.5c-2.3,0-4,0.4-5.2,1.2c-1.2,0.8-1.8,2-1.8,3.5
		c0,1.2,0.4,2.1,1.2,2.9c0.8,0.7,1.9,1.1,3.3,1.1C139.4,40.4,140.6,40.1,141.7,39.4z"/>
	<g id="XMLID_20_">
		<path id="XMLID_21_" class="st11" d="M182.7,30.1c-1.8-1.3-2.7-3.2-2.7-5.5c0-1.6,0.5-3,1.4-4.4c0.9-1.3,2.2-2.4,3.9-3.2
			c1.7-0.8,3.6-1.2,5.9-1.2c2.4,0,4.4,0.4,6.1,1.2c1.7,0.8,3.1,1.9,4,3.3c0.9,1.4,1.4,3,1.4,4.7h-6.6c0-0.8-0.2-1.5-0.6-2.1
			c-0.4-0.6-0.9-1.2-1.7-1.6c-0.7-0.4-1.6-0.6-2.7-0.6c-1.5,0-2.7,0.3-3.5,1s-1.2,1.5-1.2,2.5c0,0.6,0.2,1.2,0.5,1.6
			c0.3,0.4,0.9,0.8,1.8,1.2c0.8,0.4,2,0.7,3.5,1c2.3,0.5,4.3,1.1,5.8,1.8c1.5,0.7,2.7,1.6,3.6,2.8c0.8,1.1,1.2,2.5,1.2,4.2
			c0,1.7-0.5,3.2-1.4,4.5c-1,1.3-2.3,2.4-4.1,3.1s-3.8,1.1-6.1,1.1c-2.5,0-4.7-0.5-6.5-1.4c-1.8-0.9-3.2-2.1-4.2-3.6
			c-1-1.5-1.4-3-1.4-4.6h6.4c0.1,1.6,0.7,2.8,1.8,3.6c1.1,0.8,2.5,1.1,4.1,1.1c1.6,0,2.9-0.3,3.8-0.9c0.9-0.6,1.3-1.5,1.3-2.5
			c0-0.7-0.2-1.2-0.5-1.7s-0.9-0.9-1.8-1.3c-0.9-0.4-2.2-0.8-3.8-1.1C187,32.4,184.5,31.4,182.7,30.1z"/>
		<path id="XMLID_48_" class="st11" d="M246.8,18.4c1.6,1.7,2.4,4.4,2.4,8.1v18.6h-6.6V26.5c0-2-0.4-3.3-1.3-4.1
			c-0.8-0.8-2.1-1.2-3.8-1.2c-1.4,0-2.5,0.4-3.5,1.1c-0.9,0.7-1.6,1.7-2,3l0,0.6v19.1h-6.6V26.6c0-1.9-0.4-3.3-1.3-4.1
			c-0.9-0.8-2.1-1.2-3.8-1.2c-2.5,0-4.3,1-5.4,3.1v20.8h-6.6V16.4h6.2l0.2,3c1-1.2,2.2-2,3.5-2.6c1.4-0.6,3-0.9,4.7-0.9
			c1.8,0,3.4,0.4,4.7,1.1c1.3,0.7,2.4,1.8,3.1,3.3c1-1.4,2.2-2.5,3.7-3.2c1.5-0.8,3.2-1.2,5.1-1.2C242.9,15.9,245.2,16.7,246.8,18.4
			z"/>
		<path id="XMLID_50_" class="st11" d="M258.1,30.1c-1.8-1.3-2.7-3.2-2.7-5.5c0-1.6,0.5-3,1.4-4.4c0.9-1.3,2.2-2.4,3.9-3.2
			s3.6-1.2,5.9-1.2c2.4,0,4.4,0.4,6.1,1.2c1.7,0.8,3.1,1.9,4,3.3s1.4,3,1.4,4.7h-6.6c0-0.8-0.2-1.5-0.6-2.1
			c-0.4-0.6-0.9-1.2-1.7-1.6c-0.7-0.4-1.6-0.6-2.7-0.6c-1.5,0-2.7,0.3-3.5,1c-0.8,0.7-1.2,1.5-1.2,2.5c0,0.6,0.2,1.2,0.5,1.6
			c0.3,0.4,0.9,0.8,1.8,1.2c0.8,0.4,2,0.7,3.5,1c2.3,0.5,4.3,1.1,5.8,1.8c1.5,0.7,2.7,1.6,3.6,2.8c0.8,1.1,1.2,2.5,1.2,4.2
			c0,1.7-0.5,3.2-1.4,4.5c-1,1.3-2.3,2.4-4.1,3.1c-1.8,0.7-3.8,1.1-6.1,1.1c-2.5,0-4.7-0.5-6.5-1.4c-1.8-0.9-3.2-2.1-4.2-3.6
			c-1-1.5-1.4-3-1.4-4.6h6.4c0.1,1.6,0.7,2.8,1.8,3.6c1.1,0.8,2.5,1.1,4.1,1.1c1.6,0,2.9-0.3,3.8-0.9c0.9-0.6,1.3-1.5,1.3-2.5
			c0-0.7-0.2-1.2-0.5-1.7c-0.3-0.5-0.9-0.9-1.8-1.3c-0.9-0.4-2.2-0.8-3.8-1.1C262.4,32.4,259.9,31.4,258.1,30.1z"/>
	</g>
</g>
</svg>
