<!-- <svg width="261" height="51" viewBox="0 0 261 51"   10"fill="none" xmlns="http://www.w3.org/2000/svg">
<path d="M18 37L10.7 23.75H8.65V37H0.1V1.9H14.45C17.2167 1.9 19.5667 2.38333 21.5 3.35C23.4667 4.31666 24.9333 5.65 25.9 7.35C26.8667 9.01666 27.35 10.8833 27.35 12.95C27.35 15.2833 26.6833 17.3667 25.35 19.2C24.05 21.0333 22.1167 22.3333 19.55 23.1L27.65 37H18ZM8.65 17.7H13.95C15.5167 17.7 16.6833 17.3167 17.45 16.55C18.25 15.7833 18.65 14.7 18.65 13.3C18.65 11.9667 18.25 10.9167 17.45 10.15C16.6833 9.38333 15.5167 9 13.95 9H8.65V17.7ZM59.0172 22.6C59.0172 23.4 58.9672 24.2333 58.8672 25.1H39.5172C39.6505 26.8333 40.2005 28.1667 41.1672 29.1C42.1672 30 43.3839 30.45 44.8172 30.45C46.9505 30.45 48.4339 29.55 49.2672 27.75H58.3672C57.9005 29.5833 57.0505 31.2333 55.8172 32.7C54.6172 34.1667 53.1005 35.3167 51.2672 36.15C49.4339 36.9833 47.3839 37.4 45.1172 37.4C42.3839 37.4 39.9505 36.8167 37.8172 35.65C35.6839 34.4833 34.0172 32.8167 32.8172 30.65C31.6172 28.4833 31.0172 25.95 31.0172 23.05C31.0172 20.15 31.6005 17.6167 32.7672 15.45C33.9672 13.2833 35.6339 11.6167 37.7672 10.45C39.9005 9.28333 42.3505 8.7 45.1172 8.7C47.8172 8.7 50.2172 9.26667 52.3172 10.4C54.4172 11.5333 56.0505 13.15 57.2172 15.25C58.4172 17.35 59.0172 19.8 59.0172 22.6ZM50.2672 20.35C50.2672 18.8833 49.7672 17.7167 48.7672 16.85C47.7672 15.9833 46.5172 15.55 45.0172 15.55C43.5839 15.55 42.3672 15.9667 41.3672 16.8C40.4005 17.6333 39.8005 18.8167 39.5672 20.35H50.2672ZM72.0777 13.05C72.9111 11.75 74.0611 10.7 75.5277 9.9C76.9944 9.1 78.7111 8.7 80.6777 8.7C82.9777 8.7 85.0611 9.28333 86.9277 10.45C88.7944 11.6167 90.2611 13.2833 91.3277 15.45C92.4277 17.6167 92.9777 20.1333 92.9777 23C92.9777 25.8667 92.4277 28.4 91.3277 30.6C90.2611 32.7667 88.7944 34.45 86.9277 35.65C85.0611 36.8167 82.9777 37.4 80.6777 37.4C78.7444 37.4 77.0277 37 75.5277 36.2C74.0611 35.4 72.9111 34.3667 72.0777 33.1V50.3H63.5277V9.1H72.0777V13.05ZM84.2777 23C84.2777 20.8667 83.6777 19.2 82.4777 18C81.3111 16.7667 79.8611 16.15 78.1277 16.15C76.4277 16.15 74.9777 16.7667 73.7777 18C72.6111 19.2333 72.0277 20.9167 72.0277 23.05C72.0277 25.1833 72.6111 26.8667 73.7777 28.1C74.9777 29.3333 76.4277 29.95 78.1277 29.95C79.8277 29.95 81.2777 29.3333 82.4777 28.1C83.6777 26.8333 84.2777 25.1333 84.2777 23Z" fill="#1B75BB"/>
<path d="M118.713 19C120.747 19.4333 122.38 20.45 123.613 22.05C124.847 23.6167 125.463 25.4167 125.463 27.45C125.463 30.3833 124.43 32.7167 122.363 34.45C120.33 36.15 117.48 37 113.813 37H97.4633V1.9H113.263C116.83 1.9 119.613 2.71666 121.613 4.35C123.647 5.98333 124.663 8.2 124.663 11C124.663 13.0667 124.113 14.7833 123.013 16.15C121.947 17.5167 120.513 18.4667 118.713 19ZM106.013 16.1H111.613C113.013 16.1 114.08 15.8 114.813 15.2C115.58 14.5667 115.963 13.65 115.963 12.45C115.963 11.25 115.58 10.3333 114.813 9.7C114.08 9.06667 113.013 8.75 111.613 8.75H106.013V16.1ZM112.313 30.1C113.747 30.1 114.847 29.7833 115.613 29.15C116.413 28.4833 116.813 27.5333 116.813 26.3C116.813 25.0667 116.397 24.1 115.563 23.4C114.763 22.7 113.647 22.35 112.213 22.35H106.013V30.1H112.313ZM157.972 9.1V37H149.422V33.2C148.556 34.4333 147.372 35.4333 145.872 36.2C144.406 36.9333 142.772 37.3 140.972 37.3C138.839 37.3 136.956 36.8333 135.322 35.9C133.689 34.9333 132.422 33.55 131.522 31.75C130.622 29.95 130.172 27.8333 130.172 25.4V9.1H138.672V24.25C138.672 26.1167 139.156 27.5667 140.122 28.6C141.089 29.6333 142.389 30.15 144.022 30.15C145.689 30.15 147.006 29.6333 147.972 28.6C148.939 27.5667 149.422 26.1167 149.422 24.25V9.1H157.972ZM162.414 23C162.414 20.1333 162.947 17.6167 164.014 15.45C165.114 13.2833 166.597 11.6167 168.464 10.45C170.33 9.28333 172.414 8.7 174.714 8.7C176.547 8.7 178.214 9.08333 179.714 9.85C181.247 10.6167 182.447 11.65 183.314 12.95V-4.76837e-07H191.864V37H183.314V33C182.514 34.3333 181.364 35.4 179.864 36.2C178.397 37 176.68 37.4 174.714 37.4C172.414 37.4 170.33 36.8167 168.464 35.65C166.597 34.45 165.114 32.7667 164.014 30.6C162.947 28.4 162.414 25.8667 162.414 23ZM183.314 23.05C183.314 20.9167 182.714 19.2333 181.514 18C180.347 16.7667 178.914 16.15 177.214 16.15C175.514 16.15 174.064 16.7667 172.864 18C171.697 19.2 171.114 20.8667 171.114 23C171.114 25.1333 171.697 26.8333 172.864 28.1C174.064 29.3333 175.514 29.95 177.214 29.95C178.914 29.95 180.347 29.3333 181.514 28.1C182.714 26.8667 183.314 25.1833 183.314 23.05ZM196.349 23C196.349 20.1333 196.883 17.6167 197.949 15.45C199.049 13.2833 200.533 11.6167 202.399 10.45C204.266 9.28333 206.349 8.7 208.649 8.7C210.483 8.7 212.149 9.08333 213.649 9.85C215.183 10.6167 216.383 11.65 217.249 12.95V-4.76837e-07H225.799V37H217.249V33C216.449 34.3333 215.299 35.4 213.799 36.2C212.333 37 210.616 37.4 208.649 37.4C206.349 37.4 204.266 36.8167 202.399 35.65C200.533 34.45 199.049 32.7667 197.949 30.6C196.883 28.4 196.349 25.8667 196.349 23ZM217.249 23.05C217.249 20.9167 216.649 19.2333 215.449 18C214.283 16.7667 212.849 16.15 211.149 16.15C209.449 16.15 207.999 16.7667 206.799 18C205.633 19.2 205.049 20.8667 205.049 23C205.049 25.1333 205.633 26.8333 206.799 28.1C207.999 29.3333 209.449 29.95 211.149 29.95C212.849 29.95 214.283 29.3333 215.449 28.1C216.649 26.8667 217.249 25.1833 217.249 23.05ZM260.485 9.1L242.985 50.25H233.785L240.185 36.05L228.835 9.1H238.385L244.835 26.55L251.235 9.1H260.485Z" fill="#E83F6F"/>
</svg> -->
<svg width="160" height="21"  viewBox="0 0 261 51" fill="none" xmlns="http://www.w3.org/2000/svg">
<path d="M18 37L10.7 23.75H8.65V37H0.1V1.9H14.45C17.2167 1.9 19.5667 2.38333 21.5 3.35C23.4667 4.31666 24.9333 5.65 25.9 7.35C26.8667 9.01666 27.35 10.8833 27.35 12.95C27.35 15.2833 26.6833 17.3667 25.35 19.2C24.05 21.0333 22.1167 22.3333 19.55 23.1L27.65 37H18ZM8.65 17.7H13.95C15.5167 17.7 16.6833 17.3167 17.45 16.55C18.25 15.7833 18.65 14.7 18.65 13.3C18.65 11.9667 18.25 10.9167 17.45 10.15C16.6833 9.38333 15.5167 9 13.95 9H8.65V17.7ZM59.0172 22.6C59.0172 23.4 58.9672 24.2333 58.8672 25.1H39.5172C39.6505 26.8333 40.2005 28.1667 41.1672 29.1C42.1672 30 43.3839 30.45 44.8172 30.45C46.9505 30.45 48.4339 29.55 49.2672 27.75H58.3672C57.9005 29.5833 57.0505 31.2333 55.8172 32.7C54.6172 34.1667 53.1005 35.3167 51.2672 36.15C49.4339 36.9833 47.3839 37.4 45.1172 37.4C42.3839 37.4 39.9505 36.8167 37.8172 35.65C35.6839 34.4833 34.0172 32.8167 32.8172 30.65C31.6172 28.4833 31.0172 25.95 31.0172 23.05C31.0172 20.15 31.6005 17.6167 32.7672 15.45C33.9672 13.2833 35.6339 11.6167 37.7672 10.45C39.9005 9.28333 42.3505 8.7 45.1172 8.7C47.8172 8.7 50.2172 9.26667 52.3172 10.4C54.4172 11.5333 56.0505 13.15 57.2172 15.25C58.4172 17.35 59.0172 19.8 59.0172 22.6ZM50.2672 20.35C50.2672 18.8833 49.7672 17.7167 48.7672 16.85C47.7672 15.9833 46.5172 15.55 45.0172 15.55C43.5839 15.55 42.3672 15.9667 41.3672 16.8C40.4005 17.6333 39.8005 18.8167 39.5672 20.35H50.2672ZM72.0777 13.05C72.9111 11.75 74.0611 10.7 75.5277 9.9C76.9944 9.1 78.7111 8.7 80.6777 8.7C82.9777 8.7 85.0611 9.28333 86.9277 10.45C88.7944 11.6167 90.2611 13.2833 91.3277 15.45C92.4277 17.6167 92.9777 20.1333 92.9777 23C92.9777 25.8667 92.4277 28.4 91.3277 30.6C90.2611 32.7667 88.7944 34.45 86.9277 35.65C85.0611 36.8167 82.9777 37.4 80.6777 37.4C78.7444 37.4 77.0277 37 75.5277 36.2C74.0611 35.4 72.9111 34.3667 72.0777 33.1V50.3H63.5277V9.1H72.0777V13.05ZM84.2777 23C84.2777 20.8667 83.6777 19.2 82.4777 18C81.3111 16.7667 79.8611 16.15 78.1277 16.15C76.4277 16.15 74.9777 16.7667 73.7777 18C72.6111 19.2333 72.0277 20.9167 72.0277 23.05C72.0277 25.1833 72.6111 26.8667 73.7777 28.1C74.9777 29.3333 76.4277 29.95 78.1277 29.95C79.8277 29.95 81.2777 29.3333 82.4777 28.1C83.6777 26.8333 84.2777 25.1333 84.2777 23Z" fill="#1B75BB"/>
<path d="M118.713 19C120.747 19.4333 122.38 20.45 123.613 22.05C124.847 23.6167 125.463 25.4167 125.463 27.45C125.463 30.3833 124.43 32.7167 122.363 34.45C120.33 36.15 117.48 37 113.813 37H97.4633V1.9H113.263C116.83 1.9 119.613 2.71666 121.613 4.35C123.647 5.98333 124.663 8.2 124.663 11C124.663 13.0667 124.113 14.7833 123.013 16.15C121.947 17.5167 120.513 18.4667 118.713 19ZM106.013 16.1H111.613C113.013 16.1 114.08 15.8 114.813 15.2C115.58 14.5667 115.963 13.65 115.963 12.45C115.963 11.25 115.58 10.3333 114.813 9.7C114.08 9.06667 113.013 8.75 111.613 8.75H106.013V16.1ZM112.313 30.1C113.747 30.1 114.847 29.7833 115.613 29.15C116.413 28.4833 116.813 27.5333 116.813 26.3C116.813 25.0667 116.397 24.1 115.563 23.4C114.763 22.7 113.647 22.35 112.213 22.35H106.013V30.1H112.313ZM157.972 9.1V37H149.422V33.2C148.556 34.4333 147.372 35.4333 145.872 36.2C144.406 36.9333 142.772 37.3 140.972 37.3C138.839 37.3 136.956 36.8333 135.322 35.9C133.689 34.9333 132.422 33.55 131.522 31.75C130.622 29.95 130.172 27.8333 130.172 25.4V9.1H138.672V24.25C138.672 26.1167 139.156 27.5667 140.122 28.6C141.089 29.6333 142.389 30.15 144.022 30.15C145.689 30.15 147.006 29.6333 147.972 28.6C148.939 27.5667 149.422 26.1167 149.422 24.25V9.1H157.972ZM162.414 23C162.414 20.1333 162.947 17.6167 164.014 15.45C165.114 13.2833 166.597 11.6167 168.464 10.45C170.33 9.28333 172.414 8.7 174.714 8.7C176.547 8.7 178.214 9.08333 179.714 9.85C181.247 10.6167 182.447 11.65 183.314 12.95V-4.76837e-07H191.864V37H183.314V33C182.514 34.3333 181.364 35.4 179.864 36.2C178.397 37 176.68 37.4 174.714 37.4C172.414 37.4 170.33 36.8167 168.464 35.65C166.597 34.45 165.114 32.7667 164.014 30.6C162.947 28.4 162.414 25.8667 162.414 23ZM183.314 23.05C183.314 20.9167 182.714 19.2333 181.514 18C180.347 16.7667 178.914 16.15 177.214 16.15C175.514 16.15 174.064 16.7667 172.864 18C171.697 19.2 171.114 20.8667 171.114 23C171.114 25.1333 171.697 26.8333 172.864 28.1C174.064 29.3333 175.514 29.95 177.214 29.95C178.914 29.95 180.347 29.3333 181.514 28.1C182.714 26.8667 183.314 25.1833 183.314 23.05ZM196.349 23C196.349 20.1333 196.883 17.6167 197.949 15.45C199.049 13.2833 200.533 11.6167 202.399 10.45C204.266 9.28333 206.349 8.7 208.649 8.7C210.483 8.7 212.149 9.08333 213.649 9.85C215.183 10.6167 216.383 11.65 217.249 12.95V-4.76837e-07H225.799V37H217.249V33C216.449 34.3333 215.299 35.4 213.799 36.2C212.333 37 210.616 37.4 208.649 37.4C206.349 37.4 204.266 36.8167 202.399 35.65C200.533 34.45 199.049 32.7667 197.949 30.6C196.883 28.4 196.349 25.8667 196.349 23ZM217.249 23.05C217.249 20.9167 216.649 19.2333 215.449 18C214.283 16.7667 212.849 16.15 211.149 16.15C209.449 16.15 207.999 16.7667 206.799 18C205.633 19.2 205.049 20.8667 205.049 23C205.049 25.1333 205.633 26.8333 206.799 28.1C207.999 29.3333 209.449 29.95 211.149 29.95C212.849 29.95 214.283 29.3333 215.449 28.1C216.649 26.8667 217.249 25.1833 217.249 23.05ZM260.485 9.1L242.985 50.25H233.785L240.185 36.05L228.835 9.1H238.385L244.835 26.55L251.235 9.1H260.485Z" fill="#E83F6F"/>
</svg>
